<svg id="Capa_1" enable-background="new 0 0 512 512" height="512" viewBox="0 0 512 512" width="512" xmlns="http://www.w3.org/2000/svg"><g><path d="m376 136 30 120.001-30 119.999-120 30-120-30-30-119.999 30-120.001 120-30z" fill="#9fc"/><path d="m376 376 30-119.998-30-120.002-120-30v300z" fill="#80ecc6"/><g id="Gem_74_"><g fill="#80ecc6"><path d="m136 136v240l-59.063-22.5-76.937-97.5 68.497-89.997z"/><path d="m376 376-30 67.5-90 68.5-90.001-68.502-29.999-67.498z"/><path d="m376 136h-240l30-67.5 90-68.5 90 68.5z"/></g></g><path d="m512 256-68.5 90-67.5 30v-240l67.502 30.001z" fill="#68d9c0"/><path d="m256 512h-2.1l-210-31c-3.3-.601-6.301-2.1-8.399-4.501l21.935-81.935 78.564-18.564z" fill="#4fc6b9"/><path d="m136 376-100.499 100.499c-2.401-2.098-3.9-5.099-4.501-8.399l-31-210v-2.1z" fill="#4fc6b9"/><path d="m256 512 90-68.5 30-67.5h-120z" fill="#68d9c0"/><path d="m376 136-30-67.5-90-68.5v136z" fill="#68d9c0"/><path d="m476.499 35.501-21.341 81.341-79.158 19.158-120-136h2.1l210 31c3.3.601 6.301 2.1 8.399 4.501z" fill="#4fc6b9"/><path d="m256 0-120 136-85.396-25.396-15.103-75.103c2.098-2.401 5.099-3.9 8.399-4.501l210-31z" fill="#68d9c0"/><path d="m512 253.9v2.1l-136-120 100.499-100.499c2.401 2.098 3.9 5.099 4.501 8.399z" fill="#36b3b3"/><path d="m136 136-136 120v-2.1l31-210c.601-3.3 2.1-6.301 4.501-8.399z" fill="#4fc6b9"/><path d="m476.499 476.499c-2.098 2.401-5.099 3.9-8.399 4.501l-210 31h-2.1l120-136 82.497 22.497z" fill="#4fc6b9"/><path d="m512 256v2.1l-31 210c-.601 3.3-2.1 6.301-4.501 8.399l-100.499-100.499z" fill="#36b3b3"/></g></svg>